<svg width="20" height="21" viewBox="0 0 20 21" fill="none" xmlns="http://www.w3.org/2000/svg">
<g clip-path="url(#clip0_15_64)">
<path d="M14.95 15.4501C13.5255 16.5359 11.7909 17.1374 9.99998 17.1667C4.16665 17.1667 0.833313 10.5001 0.833313 10.5001C1.86989 8.56831 3.30759 6.88057 5.04998 5.55006M8.24998 4.03339C8.82359 3.89913 9.41087 3.83201 9.99998 3.8334C15.8333 3.8334 19.1666 10.5001 19.1666 10.5001C18.6608 11.4464 18.0575 12.3373 17.3666 13.1584M11.7666 12.2667C11.5378 12.5124 11.2618 12.7094 10.9551 12.846C10.6484 12.9826 10.3174 13.0561 9.98172 13.062C9.64605 13.068 9.31262 13.0062 9.00132 12.8805C8.69003 12.7547 8.40725 12.5676 8.16985 12.3302C7.93246 12.0928 7.74531 11.81 7.61957 11.4987C7.49383 11.1874 7.43209 10.854 7.43801 10.5183C7.44393 10.1826 7.5174 9.8516 7.65404 9.54493C7.79068 9.23827 7.98769 8.96227 8.23331 8.7334" stroke="#94A3B8" stroke-width="1.5" stroke-linecap="round" stroke-linejoin="round"/>
<path d="M0.833313 1.3334L19.1666 19.6667" stroke="#94A3B8" stroke-width="1.5" stroke-linecap="round" stroke-linejoin="round"/>
</g>
<defs>
<clipPath id="clip0_15_64">
<rect width="20" height="20" fill="white" transform="translate(0 0.500061)"/>
</clipPath>
</defs>
</svg>
